<mxfile host="app.diagrams.net" agent="Mozilla/5.0 (Windows NT 10.0; Win64; x64) AppleWebKit/537.36 (KHTML, like Gecko) Chrome/126.0.0.0 Safari/537.36" version="24.7.4">
  <diagram name="第 1 页" id="TJlREFRVbjQbi90u0qth">
    <mxGraphModel dx="794" dy="420" grid="1" gridSize="10" guides="1" tooltips="1" connect="1" arrows="1" fold="1" page="1" pageScale="1" pageWidth="827" pageHeight="1169" math="0" shadow="0">
      <root>
        <mxCell id="0" />
        <mxCell id="1" parent="0" />
        <mxCell id="6NIygA2UcwXDgmvHAig5-2" value="&lt;div&gt;极端天气对劳动力工作、收入的影响：以斐济海洋捕鱼行业为例&lt;/div&gt;" style="rounded=0;whiteSpace=wrap;html=1;fontFamily=宋体;fontSize=13;" parent="1" vertex="1">
          <mxGeometry x="380" y="40" width="390" height="40" as="geometry" />
        </mxCell>
        <mxCell id="6NIygA2UcwXDgmvHAig5-57" value="" style="edgeStyle=orthogonalEdgeStyle;rounded=0;orthogonalLoop=1;jettySize=auto;html=1;fontFamily=宋体;fontSize=13;" parent="1" source="6NIygA2UcwXDgmvHAig5-5" edge="1">
          <mxGeometry relative="1" as="geometry">
            <mxPoint x="705" y="187.5" as="targetPoint" />
          </mxGeometry>
        </mxCell>
        <mxCell id="6NIygA2UcwXDgmvHAig5-5" value="健康管理" style="rounded=0;whiteSpace=wrap;html=1;fontFamily=宋体;fontSize=13;" parent="1" vertex="1">
          <mxGeometry x="650" y="120" width="110" height="40" as="geometry" />
        </mxCell>
        <mxCell id="6NIygA2UcwXDgmvHAig5-58" style="edgeStyle=orthogonalEdgeStyle;rounded=0;orthogonalLoop=1;jettySize=auto;html=1;fontFamily=宋体;fontSize=13;" parent="1" source="6NIygA2UcwXDgmvHAig5-10" edge="1">
          <mxGeometry relative="1" as="geometry">
            <mxPoint x="434.9999999999998" y="130" as="targetPoint" />
          </mxGeometry>
        </mxCell>
        <mxCell id="39m7SFtXW_pnDy7DZffh-3" value="" style="edgeStyle=orthogonalEdgeStyle;rounded=0;orthogonalLoop=1;jettySize=auto;html=1;" edge="1" parent="1" source="6NIygA2UcwXDgmvHAig5-10" target="6NIygA2UcwXDgmvHAig5-18">
          <mxGeometry relative="1" as="geometry" />
        </mxCell>
        <mxCell id="6NIygA2UcwXDgmvHAig5-10" value="企业" style="rounded=0;whiteSpace=wrap;html=1;fontFamily=宋体;fontSize=13;" parent="1" vertex="1">
          <mxGeometry x="380" y="120" width="110" height="40" as="geometry" />
        </mxCell>
        <mxCell id="6NIygA2UcwXDgmvHAig5-88" style="edgeStyle=orthogonalEdgeStyle;rounded=0;orthogonalLoop=1;jettySize=auto;html=1;exitX=0.5;exitY=1;exitDx=0;exitDy=0;entryX=0.5;entryY=0;entryDx=0;entryDy=0;fontFamily=宋体;fontSize=13;" parent="1" target="6NIygA2UcwXDgmvHAig5-82" edge="1">
          <mxGeometry relative="1" as="geometry">
            <mxPoint x="714.9999999999998" y="436" as="sourcePoint" />
            <Array as="points">
              <mxPoint x="715" y="451" />
              <mxPoint x="575" y="451" />
            </Array>
          </mxGeometry>
        </mxCell>
        <mxCell id="6NIygA2UcwXDgmvHAig5-86" style="edgeStyle=orthogonalEdgeStyle;rounded=0;orthogonalLoop=1;jettySize=auto;html=1;exitX=0.5;exitY=1;exitDx=0;exitDy=0;entryX=0.5;entryY=0;entryDx=0;entryDy=0;fontFamily=宋体;fontSize=13;" parent="1" target="6NIygA2UcwXDgmvHAig5-82" edge="1">
          <mxGeometry relative="1" as="geometry">
            <mxPoint x="434.9999999999998" y="436" as="sourcePoint" />
            <Array as="points">
              <mxPoint x="435" y="451" />
              <mxPoint x="575" y="451" />
            </Array>
          </mxGeometry>
        </mxCell>
        <mxCell id="6NIygA2UcwXDgmvHAig5-63" value="" style="edgeStyle=orthogonalEdgeStyle;rounded=0;orthogonalLoop=1;jettySize=auto;html=1;fontFamily=宋体;fontSize=13;" parent="1" source="6NIygA2UcwXDgmvHAig5-18" target="6NIygA2UcwXDgmvHAig5-50" edge="1">
          <mxGeometry relative="1" as="geometry" />
        </mxCell>
        <mxCell id="6NIygA2UcwXDgmvHAig5-18" value="&lt;div style=&quot;text-indent: -29.3333px;&quot;&gt;气候变化对&lt;/div&gt;&lt;p style=&quot;margin-top: 0cm; margin-right: 0cm; margin-left: 22pt; text-align: justify; line-height: 150%; font-size: 13px;&quot; class=&quot;MsoListParagraph&quot;&gt;&lt;span style=&quot;font-size: 13px;&quot; lang=&quot;EN-US&quot;&gt;&lt;/span&gt;&lt;/p&gt;" style="rounded=0;whiteSpace=wrap;html=1;fontFamily=宋体;fontSize=13;" parent="1" vertex="1">
          <mxGeometry x="380" y="212.5" width="110" height="90" as="geometry" />
        </mxCell>
        <mxCell id="6NIygA2UcwXDgmvHAig5-19" value="&lt;font style=&quot;font-size: 13px;&quot;&gt;&lt;span style=&quot;text-align: justify; text-indent: -22pt; background-color: initial; font-size: 13px;&quot; lang=&quot;EN-US&quot;&gt;&amp;nbsp;&lt;/span&gt;&lt;span style=&quot;text-align: justify; text-indent: -22pt; background-color: initial; font-size: 13px;&quot;&gt;健康素养增加了个人医疗支出吗？——基于&lt;/span&gt;&lt;span style=&quot;text-align: justify; text-indent: -22pt; background-color: initial; font-size: 13px;&quot; lang=&quot;EN-US&quot;&gt;Grossman&lt;/span&gt;&lt;span style=&quot;text-align: justify; text-indent: -22pt; background-color: initial; font-size: 13px;&quot;&gt;模型和跨国证据&lt;/span&gt;&lt;/font&gt;&lt;p style=&quot;margin-top: 0cm; margin-right: 0cm; margin-left: 22pt; text-align: justify; line-height: 150%; font-size: 13px;&quot; class=&quot;MsoListParagraph&quot;&gt;&lt;span style=&quot;font-size: 13px;&quot; lang=&quot;EN-US&quot;&gt;&lt;/span&gt;&lt;/p&gt;" style="rounded=0;whiteSpace=wrap;html=1;fontFamily=宋体;fontSize=13;" parent="1" vertex="1">
          <mxGeometry x="510" y="212.5" width="110" height="90" as="geometry" />
        </mxCell>
        <mxCell id="6NIygA2UcwXDgmvHAig5-24" value="&lt;font style=&quot;font-size: 13px;&quot;&gt;&lt;span style=&quot;font-size: 13px;&quot;&gt;健康素养增加了数字技术的使用吗？&lt;/span&gt;&lt;span style=&quot;text-indent: -29.3333px; font-size: 13px;&quot;&gt;——&lt;/span&gt;&lt;span style=&quot;font-size: 13px;&quot;&gt;以老年人群体为例&lt;/span&gt;&lt;/font&gt;&lt;br style=&quot;font-size: 13px;&quot;&gt;&lt;p class=&quot;MsoListParagraph&quot; style=&quot;margin-top: 0cm; margin-right: 0cm; margin-left: 22pt; line-height: 150%; font-size: 13px;&quot;&gt;&lt;span lang=&quot;EN-US&quot; style=&quot;font-size: 13px;&quot;&gt;&lt;/span&gt;&lt;/p&gt;" style="rounded=0;whiteSpace=wrap;html=1;align=center;fontFamily=宋体;fontSize=13;" parent="1" vertex="1">
          <mxGeometry x="650" y="212.5" width="110" height="90" as="geometry" />
        </mxCell>
        <mxCell id="6NIygA2UcwXDgmvHAig5-25" style="edgeStyle=orthogonalEdgeStyle;rounded=0;orthogonalLoop=1;jettySize=auto;html=1;exitX=0.5;exitY=1;exitDx=0;exitDy=0;fontFamily=宋体;fontSize=13;" parent="1" source="6NIygA2UcwXDgmvHAig5-10" target="6NIygA2UcwXDgmvHAig5-10" edge="1">
          <mxGeometry relative="1" as="geometry" />
        </mxCell>
        <mxCell id="6NIygA2UcwXDgmvHAig5-81" value="" style="edgeStyle=orthogonalEdgeStyle;curved=1;rounded=0;orthogonalLoop=1;jettySize=auto;html=1;fontFamily=宋体;fontSize=13;" parent="1" edge="1">
          <mxGeometry relative="1" as="geometry">
            <mxPoint x="574.9411764705881" y="436" as="sourcePoint" />
            <mxPoint x="574.9411764705881" y="466" as="targetPoint" />
          </mxGeometry>
        </mxCell>
        <mxCell id="39m7SFtXW_pnDy7DZffh-2" value="" style="edgeStyle=orthogonalEdgeStyle;rounded=0;orthogonalLoop=1;jettySize=auto;html=1;" edge="1" parent="1" source="6NIygA2UcwXDgmvHAig5-11">
          <mxGeometry relative="1" as="geometry">
            <mxPoint x="565" y="210" as="targetPoint" />
          </mxGeometry>
        </mxCell>
        <mxCell id="6NIygA2UcwXDgmvHAig5-11" value="家户" style="rounded=0;whiteSpace=wrap;html=1;fontFamily=宋体;fontSize=13;" parent="1" vertex="1">
          <mxGeometry x="510" y="120" width="110" height="40" as="geometry" />
        </mxCell>
        <mxCell id="6NIygA2UcwXDgmvHAig5-32" value="研究主题" style="rounded=0;whiteSpace=wrap;html=1;fontFamily=宋体;fontSize=13;" parent="1" vertex="1">
          <mxGeometry x="237.5" y="40" width="80" height="40" as="geometry" />
        </mxCell>
        <mxCell id="6NIygA2UcwXDgmvHAig5-34" value="" style="endArrow=classic;html=1;rounded=0;exitX=1;exitY=0.5;exitDx=0;exitDy=0;entryX=0;entryY=0.5;entryDx=0;entryDy=0;fontFamily=宋体;fontSize=13;" parent="1" source="6NIygA2UcwXDgmvHAig5-32" target="6NIygA2UcwXDgmvHAig5-2" edge="1">
          <mxGeometry width="50" height="50" relative="1" as="geometry">
            <mxPoint x="600" y="230" as="sourcePoint" />
            <mxPoint x="650" y="180" as="targetPoint" />
          </mxGeometry>
        </mxCell>
        <mxCell id="6NIygA2UcwXDgmvHAig5-39" value="" style="edgeStyle=orthogonalEdgeStyle;rounded=0;orthogonalLoop=1;jettySize=auto;html=1;fontFamily=宋体;fontSize=13;" parent="1" source="6NIygA2UcwXDgmvHAig5-35" target="6NIygA2UcwXDgmvHAig5-36" edge="1">
          <mxGeometry relative="1" as="geometry" />
        </mxCell>
        <mxCell id="6NIygA2UcwXDgmvHAig5-62" value="" style="edgeStyle=orthogonalEdgeStyle;rounded=0;orthogonalLoop=1;jettySize=auto;html=1;fontFamily=宋体;fontSize=13;" parent="1" source="6NIygA2UcwXDgmvHAig5-35" target="6NIygA2UcwXDgmvHAig5-18" edge="1">
          <mxGeometry relative="1" as="geometry" />
        </mxCell>
        <mxCell id="6NIygA2UcwXDgmvHAig5-35" value="研究问题" style="rounded=0;whiteSpace=wrap;html=1;fontFamily=宋体;fontSize=13;" parent="1" vertex="1">
          <mxGeometry x="237.5" y="237.5" width="80" height="40" as="geometry" />
        </mxCell>
        <mxCell id="6NIygA2UcwXDgmvHAig5-40" value="" style="edgeStyle=orthogonalEdgeStyle;rounded=0;orthogonalLoop=1;jettySize=auto;html=1;fontFamily=宋体;fontSize=13;" parent="1" source="6NIygA2UcwXDgmvHAig5-36" target="6NIygA2UcwXDgmvHAig5-37" edge="1">
          <mxGeometry relative="1" as="geometry" />
        </mxCell>
        <mxCell id="6NIygA2UcwXDgmvHAig5-76" value="" style="edgeStyle=orthogonalEdgeStyle;curved=1;rounded=0;orthogonalLoop=1;jettySize=auto;html=1;fontFamily=宋体;fontSize=13;" parent="1" source="6NIygA2UcwXDgmvHAig5-36" target="6NIygA2UcwXDgmvHAig5-50" edge="1">
          <mxGeometry relative="1" as="geometry" />
        </mxCell>
        <mxCell id="6NIygA2UcwXDgmvHAig5-36" value="研究数据" style="rounded=0;whiteSpace=wrap;html=1;fontFamily=宋体;fontSize=13;" parent="1" vertex="1">
          <mxGeometry x="237.5" y="355" width="80" height="40" as="geometry" />
        </mxCell>
        <mxCell id="6NIygA2UcwXDgmvHAig5-84" value="" style="edgeStyle=orthogonalEdgeStyle;curved=1;rounded=0;orthogonalLoop=1;jettySize=auto;html=1;fontFamily=宋体;fontSize=13;" parent="1" source="6NIygA2UcwXDgmvHAig5-37" target="6NIygA2UcwXDgmvHAig5-82" edge="1">
          <mxGeometry relative="1" as="geometry" />
        </mxCell>
        <mxCell id="6NIygA2UcwXDgmvHAig5-37" value="政策建议" style="rounded=0;whiteSpace=wrap;html=1;fontFamily=宋体;fontSize=13;" parent="1" vertex="1">
          <mxGeometry x="237.5" y="466" width="80" height="40" as="geometry" />
        </mxCell>
        <mxCell id="6NIygA2UcwXDgmvHAig5-38" value="" style="endArrow=classic;html=1;rounded=0;exitX=0.5;exitY=1;exitDx=0;exitDy=0;entryX=0.5;entryY=0;entryDx=0;entryDy=0;fontFamily=宋体;fontSize=13;" parent="1" source="6NIygA2UcwXDgmvHAig5-32" target="6NIygA2UcwXDgmvHAig5-35" edge="1">
          <mxGeometry width="50" height="50" relative="1" as="geometry">
            <mxPoint x="600" y="230" as="sourcePoint" />
            <mxPoint x="650" y="180" as="targetPoint" />
          </mxGeometry>
        </mxCell>
        <mxCell id="6NIygA2UcwXDgmvHAig5-45" value="" style="endArrow=classic;html=1;rounded=0;exitX=0.5;exitY=1;exitDx=0;exitDy=0;entryX=0.5;entryY=0;entryDx=0;entryDy=0;edgeStyle=orthogonalEdgeStyle;fontFamily=宋体;fontSize=13;" parent="1" source="6NIygA2UcwXDgmvHAig5-2" target="6NIygA2UcwXDgmvHAig5-10" edge="1">
          <mxGeometry width="50" height="50" relative="1" as="geometry">
            <mxPoint x="585" y="90" as="sourcePoint" />
            <mxPoint x="585" y="140" as="targetPoint" />
            <Array as="points">
              <mxPoint x="550" y="80" />
              <mxPoint x="550" y="100" />
              <mxPoint x="435" y="100" />
            </Array>
          </mxGeometry>
        </mxCell>
        <mxCell id="6NIygA2UcwXDgmvHAig5-46" value="" style="endArrow=classic;html=1;rounded=0;exitX=0.5;exitY=1;exitDx=0;exitDy=0;entryX=0.5;entryY=0;entryDx=0;entryDy=0;edgeStyle=orthogonalEdgeStyle;fontFamily=宋体;fontSize=13;" parent="1" source="6NIygA2UcwXDgmvHAig5-2" target="6NIygA2UcwXDgmvHAig5-11" edge="1">
          <mxGeometry width="50" height="50" relative="1" as="geometry">
            <mxPoint x="585" y="90" as="sourcePoint" />
            <mxPoint x="445" y="140" as="targetPoint" />
            <Array as="points">
              <mxPoint x="550" y="80" />
              <mxPoint x="550" y="100" />
              <mxPoint x="565" y="100" />
            </Array>
          </mxGeometry>
        </mxCell>
        <mxCell id="6NIygA2UcwXDgmvHAig5-48" value="健康习惯" style="rounded=0;whiteSpace=wrap;html=1;fontFamily=宋体;fontSize=13;" parent="1" vertex="1">
          <mxGeometry x="660" y="395" width="110" height="40" as="geometry" />
        </mxCell>
        <mxCell id="6NIygA2UcwXDgmvHAig5-49" value="健康生产效率" style="rounded=0;whiteSpace=wrap;html=1;fontFamily=宋体;fontSize=13;" parent="1" vertex="1">
          <mxGeometry x="520" y="395" width="110" height="40" as="geometry" />
        </mxCell>
        <mxCell id="6NIygA2UcwXDgmvHAig5-50" value="主观风险偏好" style="rounded=0;whiteSpace=wrap;html=1;fontFamily=宋体;fontSize=13;" parent="1" vertex="1">
          <mxGeometry x="380" y="355" width="110" height="40" as="geometry" />
        </mxCell>
        <mxCell id="6NIygA2UcwXDgmvHAig5-82" value="通过健康素养的持续提升，优化医疗资源配置，增加患者福利" style="whiteSpace=wrap;html=1;rounded=0;fontFamily=宋体;fontSize=13;" parent="1" vertex="1">
          <mxGeometry x="380" y="466" width="390" height="40" as="geometry" />
        </mxCell>
        <mxCell id="39m7SFtXW_pnDy7DZffh-1" value="" style="endArrow=classic;html=1;rounded=0;edgeStyle=orthogonalEdgeStyle;fontFamily=宋体;fontSize=13;" edge="1" parent="1">
          <mxGeometry width="50" height="50" relative="1" as="geometry">
            <mxPoint x="550" y="70" as="sourcePoint" />
            <mxPoint x="700" y="120" as="targetPoint" />
            <Array as="points">
              <mxPoint x="550" y="100" />
              <mxPoint x="700" y="100" />
            </Array>
          </mxGeometry>
        </mxCell>
      </root>
    </mxGraphModel>
  </diagram>
</mxfile>
